<svg width="32" height="49" viewBox="0 0 32 49" fill="none" xmlns="http://www.w3.org/2000/svg">
<g clip-path="url(#clip0_168_110)">
<path d="M11.6915 9.86646C11.6915 9.86646 11.8012 0.5 21.441 0.5H10.53C4.71429 0.5 0 5.21429 0 11.03V48.5C6.45756 48.5 11.6915 43.266 11.6915 36.8085V29.0818H11.6936C11.7122 28.4627 12.1139 20.7381 19.8861 19.9865H11.6915V9.86646Z" fill="url(#paint0_linear_168_110)"/>
<path d="M31.2483 0.5C31.2483 5.67184 27.0537 9.86646 21.8819 9.86646H11.6914C11.6914 9.86646 11.8011 0.5 21.4409 0.5H31.2483Z" fill="url(#paint1_linear_168_110)"/>
<path d="M26.3251 19.9866C26.3251 22.498 25.3064 24.7713 23.6605 26.4172C22.0145 28.0632 19.7412 29.0818 17.2298 29.0818H11.6936C11.7122 28.4628 12.1139 20.7381 19.8862 19.9866H26.3251Z" fill="url(#paint2_linear_168_110)"/>
</g>
<defs>
<linearGradient id="paint0_linear_168_110" x1="-5.95238" y1="41.442" x2="15.4161" y2="10.03" gradientUnits="userSpaceOnUse">
<stop stop-color="#4F0D56"/>
<stop offset="1" stop-color="#B43E8F"/>
</linearGradient>
<linearGradient id="paint1_linear_168_110" x1="7.7266" y1="5.18323" x2="26.6024" y2="5.18323" gradientUnits="userSpaceOnUse">
<stop stop-color="#4F0D56"/>
<stop offset="1" stop-color="#B43E8F"/>
</linearGradient>
<linearGradient id="paint2_linear_168_110" x1="11.6936" y1="24.5352" x2="22.8965" y2="24.5352" gradientUnits="userSpaceOnUse">
<stop stop-color="#4F0D56"/>
<stop offset="1" stop-color="#B43E8F"/>
</linearGradient>
<clipPath id="clip0_168_110">
<rect width="31.2484" height="48" fill="white" transform="translate(0 0.5)"/>
</clipPath>
</defs>
</svg>
